<svg width="28" height="43" viewBox="0 0 28 43" fill="none" xmlns="http://www.w3.org/2000/svg">
<g clip-path="url(#clip0_1_810)">
<path d="M5.57392 12.8443C5.53959 12.7988 5.51839 12.749 5.51839 12.6971V7.81112C5.51839 7.68833 5.61432 7.58989 5.73145 7.58989H13.932C15.6305 7.58989 17.1008 8.06938 18.2983 9.01251C19.8989 10.27 20.8542 12.3267 20.8542 14.5209C20.8542 15.898 20.4613 17.2551 19.7161 18.4533L19.6748 18.5168C18.775 19.5626 18.8305 21.1853 19.8039 22.1484C20.2513 22.5856 20.8533 22.828 21.4954 22.828C22.1629 22.828 22.8112 22.5603 23.2302 22.1104L23.3404 21.995C24.9116 19.9468 25.7779 17.291 25.7779 14.522C25.7779 11.5942 24.8541 8.7934 23.1767 6.63725C21.6631 4.69278 18.8295 2.37891 13.932 2.37891H0.650146V40.7473H5.51839V21.9845C5.51839 21.8912 5.57493 21.8087 5.65673 21.7758C5.67087 21.7706 5.7264 21.7611 5.72943 21.7589C5.79204 21.7589 5.85263 21.7875 5.88898 21.8372L21.036 40.5399L21.2045 40.7473H27.6501L16.2576 26.5264L5.57392 12.8443Z" fill="black"/>
</g>
<defs>
<clipPath id="clip0_1_810">
<rect width="27" height="42.3684" fill="white" transform="translate(0.650146 0.378906)"/>
</clipPath>
</defs>
</svg>
